<svg id="Layer_1" data-name="Layer 1" xmlns="http://www.w3.org/2000/svg" viewBox="0 0 1092.01 311.24"><defs><style>.cls-1{fill:#fff;}.cls-2{fill:#5cc60a;}</style></defs><path class="cls-1" d="M377.49,67.42v39.89H346.7V266.75H294.87V107.31H264.21V67.42Z"/><path class="cls-1" d="M407.46,67.42h36.69q36.69,0,49.68,2.83T515,84.72q8.18,11.63,8.18,37.12,0,23.26-5.78,31.27t-22.78,9.6q15.39,3.82,20.68,10.22t6.59,11.76q1.29,5.35,1.29,29.49v52.57H475.05V200.51q0-16-2.52-19.82t-13.24-3.82v89.88H407.46Zm51.83,34.1v44.33q8.74,0,12.25-2.4t3.51-15.58v-11q0-9.48-3.38-12.43T459.29,101.52Z"/><path class="cls-1" d="M651,67.42l29.64,199.33h-53l-2.79-35.83H606.36l-3.11,35.83H549.66L576.1,67.42ZM623.55,195.59q-3.94-33.87-7.9-83.72-7.92,57.26-9.95,83.72Z"/><path class="cls-1" d="M707.62,67.42H746.4q37.54,0,50.79,3.45t20.13,11.32a36.07,36.07,0,0,1,8.62,17.55q1.71,9.66,1.72,38v69.81q0,26.85-2.53,35.89a27,27,0,0,1-8.8,14.16,36.51,36.51,0,0,1-15.51,7.14q-9.24,2-27.83,2H707.62Zm51.83,34.1V232.65q11.2,0,13.79-4.5t2.58-24.44V126.27q0-13.55-.86-17.36a8.23,8.23,0,0,0-3.94-5.6Q767.95,101.53,759.45,101.52Z"/><path class="cls-1" d="M865.14,67.42h86.43v39.89H917v37.8h32.38V183H917v43.83h38v39.89H865.14Z"/><path class="cls-2" d="M220.61,261.17c9.19-18.35,21.26-35.28,34.73-51.1a267,267,0,0,1,46.21-42.56,230.58,230.58,0,0,1,56.63-30,219,219,0,0,1,31.44-8.74,226.88,226.88,0,0,1,32.61-4,245.6,245.6,0,0,1,65.35,6q8,1.78,15.87,4.05c5.25,1.48,10.45,3.13,15.59,4.89,10.29,3.54,20.34,7.65,30.18,12.12a419.33,419.33,0,0,1,56.26,31.34c2.23,1.47,4.47,2.94,6.66,4.44l6.34,4.31c2,1.37,4,2.75,6,4.07s4,2.69,6.09,4q12.25,7.85,24.86,14.78A340.1,340.1,0,0,0,707.18,238c8.82,3,17.7,5.61,26.62,7.7a221.46,221.46,0,0,0,26.88,4.52,191.73,191.73,0,0,0,104-17.73,223.72,223.72,0,0,0,23.74-13.09,254.5,254.5,0,0,0,22.47-15.88c7.24-5.74,14.31-11.8,21.09-18.26S945.34,172,951.68,165s12.43-14.35,18.32-21.86,11.52-15.27,17-23.18,10.56-16,15.5-24.25q3.7-6.16,7.16-12.4c1.15-2.08,2.26-4.16,3.35-6.22l1.61-3.06,1.38-2.71,46.86,20.37-1,2.25-.85,2-1.71,3.83c-1.14,2.52-2.32,5-3.52,7.44-2.39,4.9-4.85,9.71-7.4,14.48-5.1,9.52-10.6,18.79-16.36,27.92s-11.85,18.06-18.31,26.75-13.24,17.21-20.41,25.44S978.63,218,970.7,225.67s-16.22,15-25,21.92A309,309,0,0,1,918.33,267a276.26,276.26,0,0,1-29.87,16.23,244.14,244.14,0,0,1-65.7,20,242.43,242.43,0,0,1-68.57.49,285,285,0,0,1-65-17c-10.31-4-20.34-8.52-30.11-13.41s-19.27-10.17-28.48-15.8S612.44,246,603.71,239.83c-2.2-1.53-4.34-3.12-6.5-4.68s-4.3-3.17-6.42-4.77L587.6,228l-2.89-2.23c-1.92-1.49-3.86-2.94-5.81-4.39a412.93,412.93,0,0,0-48.65-31.27q-12.64-6.85-25.76-12.52c-4.37-1.89-8.77-3.69-13.22-5.33s-8.92-3.21-13.44-4.6-9.07-2.68-13.65-3.82-9.18-2.17-13.82-3a213.28,213.28,0,0,0-28.05-3.28,195.59,195.59,0,0,0-28.32.6,198.12,198.12,0,0,0-28.17,4.63,224,224,0,0,0-54.13,20.89,281.89,281.89,0,0,0-49,33.83,294.79,294.79,0,0,0-22.06,20.7A260.63,260.63,0,0,0,220.61,261.17Z"/><path class="cls-2" d="M1072.51,5.33c-2.28,41.63,1.08,96,13.13,134l-50.59-47.81-69.46-4.37C1001.61,70,1043.64,35.4,1072.51,5.33Z"/><path class="cls-1" d="M865.14,67.42h86.43v39.89H917v37.8h32.38V183H917v43.83h38v39.89H865.14Z"/><path class="cls-1" d="M258.74,272.82A200.92,200.92,0,0,1,207,292.94a237.51,237.51,0,0,1-54.93,6.44q-33.4,0-61.16-10.87a143,143,0,0,1-48.09-30.58,137.3,137.3,0,0,1-31.58-47.28Q0,183.1,0,149.69,0,115.9,11.87,88.32a138.15,138.15,0,0,1,32.8-47.07A151.61,151.61,0,0,1,93.35,10.86,163.17,163.17,0,0,1,153.31,0a173.83,173.83,0,0,1,54.12,8.45q25.95,8.45,46.48,29L228.56,64a97.14,97.14,0,0,0-35.21-24.14,111.38,111.38,0,0,0-42.45-8.45,115.47,115.47,0,0,0-45.47,8.85,109.94,109.94,0,0,0-60.56,62q-8.67,21.72-8.65,47.48a125.89,125.89,0,0,0,8.65,47.08A113.08,113.08,0,0,0,69,234.39a108.17,108.17,0,0,0,37.22,24.75Q128,268,154.12,268a166.52,166.52,0,0,0,36.21-4.22,144.65,144.65,0,0,0,34.61-12.28V164.18H205.57V132.79h53.17Z"/><path class="cls-2" d="M158.23,61.88v176H119.34V134.18q0-18.09-.87-21.75a8.14,8.14,0,0,0-4.77-5.54Q109.8,105,96.33,105H92.47V86.84q28.22-6.07,42.85-25Z"/><path class="cls-1" d="M165.64,148.38c17.8,6.6,33.88,19.87,47.57,31.81l-4.67-31.81,4.67-31.81C199.52,128.51,183.44,141.78,165.64,148.38Z"/><path class="cls-1" d="M707.62,67.42H746.4q37.54,0,50.79,3.45t20.13,11.32a36.07,36.07,0,0,1,8.62,17.55q1.71,9.66,1.72,38v69.81q0,26.85-2.53,35.89a27,27,0,0,1-8.8,14.16,36.51,36.51,0,0,1-15.51,7.14q-9.24,2-27.83,2H707.62Zm51.83,34.1V232.65q11.2,0,13.79-4.5t2.58-24.44V126.27q0-13.55-.86-17.36a8.23,8.23,0,0,0-3.94-5.6Q767.95,101.53,759.45,101.52Z"/><path class="cls-1" d="M407.46,67.42h36.69q36.69,0,49.68,2.83T515,84.72q8.18,11.63,8.18,37.12,0,23.26-5.78,31.27t-22.78,9.6q15.39,3.82,20.68,10.22t6.59,11.76q1.29,5.35,1.29,29.49v52.57H475.05V200.51q0-16-2.52-19.82t-13.24-3.82v89.88H407.46Zm51.83,34.1v44.33q8.74,0,12.25-2.4t3.51-15.58v-11q0-9.48-3.38-12.43T459.29,101.52Z"/></svg>